<svg xmlns="http://www.w3.org/2000/svg" width="19" height="18" fill="none">
  <title>검색</title>
  <path fill="#E5E5E5" d="M7.588 11.831c-1.353 0-2.497-.468-3.433-1.406-.937-.937-1.405-2.069-1.405-3.394 0-1.325.469-2.456 1.406-3.393C5.094 2.7 6.228 2.23 7.56 2.23c1.332 0 2.463.469 3.394 1.407.931.937 1.397 2.07 1.397 3.396a4.669 4.669 0 0 1-1.05 2.96l4.537 4.5a.539.539 0 0 1 .17.408.566.566 0 0 1-.17.417.566.566 0 0 1-.416.168.539.539 0 0 1-.409-.168L10.494 10.8a4.135 4.135 0 0 1-1.312.76 4.64 4.64 0 0 1-1.595.271Zm-.02-1.125c1.016 0 1.88-.36 2.59-1.078a3.56 3.56 0 0 0 1.067-2.597 3.56 3.56 0 0 0-1.066-2.597c-.711-.718-1.575-1.078-2.59-1.078-1.026 0-1.898.36-2.617 1.078a3.541 3.541 0 0 0-1.077 2.597c0 1.013.36 1.878 1.077 2.597.719.719 1.59 1.078 2.617 1.078Z"/>
</svg>
